<?xml version="1.0" encoding="UTF-8"?>
<svg version="1.1" viewBox="0 0 2048 2048" width="1280" height="1280" xmlns="http://www.w3.org/2000/svg">
<path transform="translate(1830,129)" d="m0 0 5 1 84 84-1 4-1701 1701-4-1-7-8-30-30-6-5-7-8-22-22-6-5-5-5-2-4 152-152h2l2-4h2v-2l5-4 2-3 1-1511 1-1h1041l14 12 17 16 10 9 13 12 12 11 8 7 15 14 10 9 36 33 10 9 13 12 12 11 8 7 15 14 12 11 8 7 15 14 8 7 9 8h3l2-4zm-1381 148-30 1v1262l5-3 11-12 438-438v-1h-189v-124l258 1 1 53 5-3 12-13 276-276 6-5v-2l4-2 3-4v-433l-158-1zm925 81-1 129v97l2 1 113-113 5-4-1-4-8-7-16-15-12-11-8-7-13-12-36-33-8-7-10-9-6-5z" fill="#f07714"/>
<path transform="translate(1725,650)" d="m0 0h123l1 1242-1 2h-1279l-1-1v-123h1156v-1119z" fill="#f07714"/>
<path transform="translate(1016,1287)" d="m0 0h390l53 1v123l-7 1h-463l-1-1v-123z" fill="#f07714"/>
<path transform="translate(684,636)" d="m0 0h448l2 2v121l-1 1h-450v-123z" fill="#f07714"/>
<path transform="translate(1314,962)" d="m0 0h145v123l-1 1h-144l-1-2v-121z" fill="#f07714"/>
</svg>
